<?xml version="1.0" encoding="UTF-8" standalone="no"?>
<svg
   xmlns:dc="http://purl.org/dc/elements/1.1/"
   xmlns:cc="http://creativecommons.org/ns#"
   xmlns:rdf="http://www.w3.org/1999/02/22-rdf-syntax-ns#"
   xmlns:svg="http://www.w3.org/2000/svg"
   xmlns="http://www.w3.org/2000/svg"
   xmlns:sodipodi="http://sodipodi.sourceforge.net/DTD/sodipodi-0.dtd"
   xmlns:inkscape="http://www.inkscape.org/namespaces/inkscape"
   width="100%"
   height="100%"
   viewBox="0 0 1200 800"
   version="1.1"
   xml:space="preserve"
   style="fill-rule:evenodd;clip-rule:evenodd;stroke-linejoin:round;stroke-miterlimit:1.41421;"
   id="svg78"
   sodipodi:docname="thinking-rustacean.svg"
   inkscape:version="0.92.2 2405546, 2018-03-11"
   inkscape:export-filename="/home/thomas/projects/graphic/thinking-rustacean/thinking-rustacean.svg.png"
   inkscape:export-xdpi="457.867"
   inkscape:export-ydpi="457.867"><metadata
   id="metadata82"><rdf:RDF><cc:Work
       rdf:about=""><dc:format>image/svg+xml</dc:format><dc:type
         rdf:resource="http://purl.org/dc/dcmitype/StillImage" /><dc:title></dc:title></cc:Work></rdf:RDF></metadata><sodipodi:namedview
   pagecolor="#ffffff"
   bordercolor="#666666"
   borderopacity="1"
   objecttolerance="10"
   gridtolerance="10"
   guidetolerance="10"
   inkscape:pageopacity="0"
   inkscape:pageshadow="2"
   inkscape:window-width="1865"
   inkscape:window-height="1046"
   id="namedview80"
   showgrid="false"
   inkscape:snap-object-midpoints="false"
   inkscape:zoom="0.90509668"
   inkscape:cx="582.60194"
   inkscape:cy="380.12399"
   inkscape:window-x="55"
   inkscape:window-y="0"
   inkscape:window-maximized="1"
   inkscape:current-layer="svg78"
   showguides="true"
   inkscape:guide-bbox="true"
   inkscape:snap-smooth-nodes="true"
   inkscape:snap-intersection-paths="true"
   inkscape:object-paths="true"
   units="px"
   inkscape:snap-center="false"
   inkscape:snap-bbox="true"
   inkscape:snap-bbox-midpoints="true"><inkscape:grid
     type="xygrid"
     id="grid96" /></sodipodi:namedview>
    
    <defs
   id="defs76">
        <linearGradient
   id="_Linear1"
   x1="0"
   y1="0"
   x2="1"
   y2="0"
   gradientUnits="userSpaceOnUse"
   gradientTransform="matrix(1,0,0,-1,0,-6.50515e-4)"><stop
     offset="0"
     style="stop-color:rgb(247,76,0);stop-opacity:1"
     id="stop51" /><stop
     offset="0.33"
     style="stop-color:rgb(247,76,0);stop-opacity:1"
     id="stop53" /><stop
     offset="1"
     style="stop-color:rgb(244,150,0);stop-opacity:1"
     id="stop55" /></linearGradient>
        <linearGradient
   id="_Linear2"
   x1="0"
   y1="0"
   x2="1"
   y2="0"
   gradientUnits="userSpaceOnUse"
   gradientTransform="matrix(1,0,0,-1,0,1.23438e-6)"><stop
     offset="0"
     style="stop-color:rgb(204,58,0);stop-opacity:1"
     id="stop58" /><stop
     offset="0.15"
     style="stop-color:rgb(204,58,0);stop-opacity:1"
     id="stop60" /><stop
     offset="0.74"
     style="stop-color:rgb(247,76,0);stop-opacity:1"
     id="stop62" /><stop
     offset="1"
     style="stop-color:rgb(247,76,0);stop-opacity:1"
     id="stop64" /></linearGradient>
        <linearGradient
   id="_Linear3"
   x1="0"
   y1="0"
   x2="1"
   y2="0"
   gradientUnits="userSpaceOnUse"
   gradientTransform="scale(1,-1)"><stop
     offset="0"
     style="stop-color:rgb(204,58,0);stop-opacity:1"
     id="stop67" /><stop
     offset="0.15"
     style="stop-color:rgb(204,58,0);stop-opacity:1"
     id="stop69" /><stop
     offset="0.74"
     style="stop-color:rgb(247,76,0);stop-opacity:1"
     id="stop71" /><stop
     offset="1"
     style="stop-color:rgb(247,76,0);stop-opacity:1"
     id="stop73" /></linearGradient>
    
	

		
	
			
			
			
		
        
        
        
        
        
        
        
        
        
        
        
        
    
            
        
				
				
				
				
				
			</defs>
<g
   id="g92"
   transform="translate(0.11066502,-8.7739546)"><g
     transform="translate(597.344,615.02)"
     id="g4">
            <path
   d="m 0,-279.559 c -121.238,0 -231.39,14.576 -312.939,38.329 V -38.329 C -231.39,-14.575 -121.238,0 0,0 138.76,0 262.987,-19.092 346.431,-49.186 V -230.37 C 262.987,-260.465 138.76,-279.559 0,-279.559"
   style="fill:#a52b00;fill-rule:nonzero"
   id="path2"
   inkscape:connector-curvature="0" />
        </g><g
     transform="translate(1068.75,553.642)"
     id="g8">
            <path
   d="m 0,-53.32 -14.211,-29.441 c 0.073,-1.118 0.131,-2.237 0.131,-3.36 0,-33.375 -34.706,-64.135 -93.097,-88.762 V 2.643 c 27.245,-11.492 49.348,-24.317 65.156,-38.125 -4.652,18.707 -20.564,56.553 -33.25,83.168 -20.85,38.066 -28.4,71.203 -27.432,72.844 0.617,1.033 7.73,-9.94 18.219,-27.721 C -60.074,58.028 -13.82,-8.373 -4.575,-25.287 5.897,-44.461 0,-53.32 0,-53.32"
   style="fill:#a52b00;fill-rule:nonzero"
   id="path6"
   inkscape:connector-curvature="0" />
        </g><g
     transform="translate(149.064,569.421)"
     id="g12">
            <path
   d="m 0,-99.954 c 0,6.428 1.293,12.76 3.788,18.969 l -8.511,15.15 c 0,0 -6.818,8.846 5.188,27.508 10.59,16.455 63.635,80.867 91.632,114.598 12.026,17.293 20.179,27.945 20.893,26.916 1.124,-1.633 -7.476,-34.1 -31.359,-71.141 -11.144,-19.895 -24.454,-46.252 -32.442,-65.721 22.303,14.116 51.483,26.92 86.152,37.94 V -204.17 C 51.797,-177.622 0,-140.737 0,-99.954"
   style="fill:#a52b00;fill-rule:nonzero"
   id="path10"
   inkscape:connector-curvature="0" />
        </g><g
     transform="matrix(-65.8097,-752.207,-752.207,65.8097,621.707,774.312)"
     id="g16">
            <path
   d="M 0.991,-0.034 0.933,0.008 c 0,0.006 0,0.012 0,0.018 L 0.99,0.069 C 0.996,0.073 0.999,0.08 0.998,0.087 0.997,0.094 0.992,0.1 0.986,0.103 L 0.92,0.133 C 0.919,0.139 0.918,0.145 0.916,0.15 L 0.964,0.203 C 0.968,0.208 0.97,0.216 0.968,0.222 0.965,0.229 0.96,0.234 0.953,0.236 L 0.882,0.254 C 0.88,0.259 0.877,0.264 0.875,0.27 L 0.91,0.33 c 0.004,0.006 0.004,0.014 0,0.02 C 0.907,0.356 0.9,0.36 0.893,0.361 L 0.82,0.365 C 0.817,0.369 0.813,0.374 0.81,0.379 L 0.832,0.445 C 0.835,0.452 0.833,0.459 0.828,0.465 0.824,0.47 0.816,0.473 0.809,0.472 L 0.737,0.462 C 0.733,0.466 0.729,0.47 0.724,0.474 l 0.009,0.07 C 0.734,0.551 0.731,0.558 0.725,0.562 0.719,0.566 0.711,0.568 0.704,0.565 L 0.636,0.542 C 0.631,0.546 0.626,0.549 0.621,0.552 L 0.615,0.621 c 0,0.008 -0.005,0.014 -0.011,0.017 -0.007,0.003 -0.015,0.003 -0.021,0 L 0.521,0.602 C 0.52,0.603 0.519,0.603 0.518,0.603 L 0.406,0.729 c 0,0 -0.012,0.018 -0.047,-0.004 C 0.329,0.705 0.206,0.599 0.141,0.543 0.109,0.52 0.089,0.504 0.09,0.502 0.093,0.499 0.149,0.509 0.217,0.554 0.278,0.588 0.371,0.631 0.38,0.619 c 0,0 0.016,-0.015 0.026,-0.044 0,0 0,0 0,0 10e-4,0.001 10e-4,0.001 0,0 0,0 -0.315,-0.551 -0.101,-1.106 C 0.311,-0.593 0.275,-0.627 0.275,-0.627 0.266,-0.639 0.178,-0.598 0.12,-0.566 0.055,-0.523 0.002,-0.513 0,-0.516 -0.001,-0.518 0.018,-0.533 0.049,-0.555 0.11,-0.608 0.227,-0.707 0.256,-0.726 0.289,-0.748 0.301,-0.73 0.301,-0.73 l 0.101,0.115 c 0.004,0.001 0.008,0.002 0.013,0.002 L 0.47,-0.658 c 0.005,-0.005 0.013,-0.006 0.02,-0.004 0.007,0.002 0.012,0.007 0.014,0.014 l 0.018,0.068 c 0.005,0.002 0.011,0.004 0.016,0.006 l 0.064,-0.034 c 0.006,-0.004 0.014,-0.004 0.021,0 0.006,0.003 0.01,0.009 0.01,0.016 l 0.004,0.07 c 0.005,0.003 0.01,0.007 0.015,0.01 l 0.069,-0.022 c 0.007,-0.002 0.015,-0.001 0.02,0.003 0.006,0.005 0.009,0.012 0.008,0.019 l -0.011,0.069 c 0.004,0.004 0.008,0.008 0.013,0.012 l 0.072,-0.008 c 0.007,-0.001 0.014,0.002 0.019,0.007 0.005,0.006 0.006,0.013 0.003,0.02 l -0.024,0.065 c 0.003,0.005 0.007,0.01 0.01,0.015 l 0.072,0.005 c 0.008,0 0.014,0.005 0.017,0.011 0.004,0.006 0.004,0.014 0,0.02 l -0.037,0.06 c 0.002,0.005 0.004,0.01 0.006,0.016 l 0.07,0.018 c 0.007,0.002 0.013,0.007 0.015,0.014 0.002,0.007 0,0.014 -0.005,0.02 L 0.92,-0.116 c 0.001,0.005 0.003,0.011 0.004,0.017 l 0.064,0.031 C 0.995,-0.065 0.999,-0.059 1,-0.052 1.001,-0.045 0.997,-0.038 0.991,-0.034 Z M 0.406,0.575 c 0,0 0,0 0,0 0,0 0,0 0,0 z"
   style="fill:url(#_Linear1);fill-rule:nonzero"
   id="path14"
   inkscape:connector-curvature="0" />
        </g><path
     sodipodi:nodetypes="csccccccccccscccccscccsccc"
     inkscape:connector-curvature="0"
     id="path18"
     d="m 448.92969,498.22852 c -8.412,0.0237 -16.31689,3.89639 -20.52149,10.8125 -4.20459,6.9161 -4.57928,15.95339 -1.47265,25.49023 9.12996,28.04091 4.71078,49.22883 -9.88481,62.08737 -2.27917,2.04495 -4.62779,4.07093 -6.88845,6.0565 v 8.18674 l 71.96665,2.22794 8.37545,-1.94697 c 4.43878,-7.37406 7.69066,-16.06539 9.42096,-31.08097 1.7303,-15.01557 -2.87145,-35.66509 -6.6421,-44.95072 -6.60618,-16.2694 -17.71853,-29.75798 -32.32812,-34.76758 h -0.002 c -4.10512,-1.40674 -8.14135,-2.12617 -12.02343,-2.11523 z m 210.47461,80.75195 c -3.30755,-0.0868 -6.32012,0.28904 -8.89649,0.88867 l -0.0137,0.002 -140.19923,32.59219 v 7.31313 c -2e-5,23.11475 65.63576,-4.75688 87.04884,-4.75688 30.24748,0 59.80399,-0.90807 88.39844,-2.63867 1.17688,-1.39822 1.77125,-3.19533 1.66015,-5.01953 -0.11866,-1.90889 -0.40608,-3.89142 -0.88086,-5.93555 -1.84279,-7.99302 -6.07858,-13.99809 -11.25,-17.5625 -5.17141,-3.56441 -10.90407,-4.7527 -15.86718,-4.88281 z"
     style="fill:#000000;fill-opacity:1;fill-rule:nonzero;stroke:none;stroke-width:20;stroke-miterlimit:1.41420996;stroke-dasharray:none;stroke-opacity:1" /><path
     id="path187"
     d="m 537.62143,523.88105 c -2.67799,-2.50142 -4.64797,-5.77144 -5.43561,-9.57291 -1.94921,-9.23707 3.90013,-17.84403 13.09739,-19.1839 90.44406,-13.35359 146.77361,37.99388 149.15731,40.18025 7.09053,6.57812 7.77951,17.27277 1.61511,23.93053 -6.14536,6.61794 -16.84001,6.65776 -23.9115,0.11772 -2.04787,-1.81245 -46.71855,-41.51838 -119.79116,-30.74583 -5.45465,0.80842 -10.85045,-1.1027 -14.73154,-4.72586"
     style="fill:#664500;stroke-width:1.73108625"
     inkscape:connector-curvature="0" /><g
     transform="translate(747.12,455.333)"
     id="g24">
            <path
   d="m 0,171.974 c 1.663,-1.42 2.536,-2.264 2.536,-2.264 L -134.448,159.687 C -18.12,0 69.421,126.835 79.335,140.497 v 31.477 z"
   style="fill-rule:nonzero"
   id="path22"
   inkscape:connector-curvature="0" />
        </g><g
     transform="matrix(-1.53e-5,-267.211,-267.211,1.53e-5,809.465,742.23)"
     id="g28">
            <path
   d="m 1,-0.586 c 0,0 -0.232,0.058 -0.476,0.421 L 0.5,-0.064 c 0,0 0.6,0.329 -0.076,0.795 0,0 0.084,-0.145 -0.019,-0.534 0,0 -0.274,0.179 -0.265,0.539 0,0 -0.415,-0.345 0.184,-0.871 0,0 0.215,-0.556 0.676,-0.601 z"
   style="fill:url(#_Linear2);fill-rule:nonzero"
   id="path26"
   inkscape:connector-curvature="0" />
        </g><g
     transform="matrix(-1.53e-5,-239.021,-239.021,1.53e-5,402.161,753.388)"
     id="g48">
            <path
   sodipodi:nodetypes="ccccc"
   d="M 0.10758313,0.09848039 0.39443735,0.11140561 C 0.43243735,0.21540561 0.772,0.372 0.906,0.451 L 1,0.77 C 0.376,0.403 0.10758313,0.09848039 0.10758313,0.09848039 Z"
   style="fill:url(#_Linear3);fill-rule:nonzero"
   id="path46"
   inkscape:connector-curvature="0" />
        </g><path
     id="path181"
     d="m 550.68074,403.20006 c 0,27.20056 -17.64669,49.23902 -39.3926,49.23902 -21.7459,0 -39.39259,-22.04019 -39.39259,-49.23902 0,-27.17978 17.64669,-49.23901 39.39259,-49.23901 21.74591,0 39.3926,22.0575 39.3926,49.23901"
     style="fill:#664500;stroke-width:1.73108625"
     inkscape:connector-curvature="0" /><path
     id="path183"
     d="m 759.33895,422.89463 c 0,27.20056 -17.62765,49.23902 -39.3926,49.23902 -21.74417,0 -39.3926,-22.04019 -39.3926,-49.23902 0,-27.17978 17.64669,-49.23902 39.3926,-49.23902 21.76495,0 39.3926,22.05924 39.3926,49.23902"
     style="fill:#664500;stroke-width:1.73108625"
     inkscape:connector-curvature="0" /><path
     id="path185"
     d="m 437.7239,321.1258 c -3.2302,-1.71377 -5.96705,-4.39176 -7.7016,-7.83836 -4.25501,-8.44943 -0.78764,-18.25776 7.73969,-21.92074 84.02346,-36.04295 151.63969,-0.8465 154.47521,0.66993 8.52906,4.54929 11.97565,14.73328 7.7016,22.72916 -4.25501,7.97685 -14.57575,10.75351 -23.10308,6.26307 -2.42179,-1.26023 -55.77906,-28.20459 -123.65149,0.92613 -5.05996,2.14655 -10.77255,1.67223 -15.46033,-0.82919"
     style="fill:#664500;stroke-width:1.73108625"
     inkscape:connector-curvature="0" /><path
     id="path189"
     d="m 649.65213,394.98606 c -3.07268,-1.93016 -5.63295,-4.78646 -7.13034,-8.35076 -3.68375,-8.70563 0.45354,-18.27854 9.19726,-21.35122 86.28772,-30.25246 151.36271,9.45346 154.10129,11.16724 8.17419,5.12055 10.91104,15.50014 6.12459,23.20175 -4.76569,7.68083 -15.28377,9.74947 -23.45795,4.68778 -2.36294,-1.43853 -53.73119,-31.92643 -123.43511,-7.48522 -5.19672,1.81418 -10.86949,0.94691 -15.39974,-1.86957"
     style="fill:#664500;stroke-width:1.73108625"
     inkscape:connector-curvature="0" /><path
     inkscape:connector-curvature="0"
     style="fill:#f4900c;stroke-width:1.42134225"
     d="m 554.07378,785.11811 c 0,0 20.45737,-6.6462 23.1096,-21.86451 2.7972,-15.70299 -10.09153,-18.87258 -10.09153,-18.87258 0,0 16.83438,-3.36432 18.9536,-22.25254 1.98846,-17.78951 -13.94052,-22.04217 -13.94052,-22.04217 0,0 15.68593,-6.46853 16.43072,-24.8877 0.61402,-15.50827 -16.09102,-23.09255 -16.09102,-23.09255 0,0 81.47275,-19.72965 89.83451,-21.66978 8.3447,-1.9572 21.36278,-9.9622 17.30343,-27.41059 -4.02667,-17.46546 -19.47097,-18.07948 -27.45892,-16.22036 -7.98936,1.87618 -109.06243,25.34111 -143.92796,33.45982 -3.71965,0.85707 -21.15241,4.88373 -23.27163,5.4011 -8.73273,2.05384 -12.69543,-1.79516 -6.54955,-8.27931 8.231,-8.66735 13.47149,-18.25857 15.31496,-34.1705 1.9245,-16.75336 -3.75234,-37.4211 -7.00295,-45.42609 -6.04781,-14.89425 -16.25305,-26.66723 -28.04166,-30.70952 -18.40354,-6.3065 -31.46994,5.19074 -24.93744,25.24445 9.76746,29.99886 3.37995,54.57955 -13.47149,69.42547 -39.60428,34.88257 -58.04051,59.75464 -45.76579,112.76502 13.3734,57.81452 70.78426,95.02526 128.59735,81.6348 3.05731,-0.68225 51.00629,-11.03246 51.00629,-11.03246"
     id="path193" /><g
     transform="matrix(1.384869,0,0,1.384869,245.5325,53.483867)"
     id="g201">
</g><g
     transform="matrix(1.384869,0,0,1.384869,245.5325,53.483867)"
     id="g203">
</g><g
     transform="matrix(1.384869,0,0,1.384869,245.5325,53.483867)"
     id="g205">
</g><g
     transform="matrix(1.384869,0,0,1.384869,245.5325,53.483867)"
     id="g207">
</g><g
     transform="matrix(1.384869,0,0,1.384869,245.5325,53.483867)"
     id="g209">
</g><g
     transform="matrix(1.384869,0,0,1.384869,245.5325,53.483867)"
     id="g211">
</g><g
     transform="matrix(1.384869,0,0,1.384869,245.5325,53.483867)"
     id="g213">
</g><g
     transform="matrix(1.384869,0,0,1.384869,245.5325,53.483867)"
     id="g215">
</g><g
     transform="matrix(1.384869,0,0,1.384869,245.5325,53.483867)"
     id="g217">
</g><g
     transform="matrix(1.384869,0,0,1.384869,245.5325,53.483867)"
     id="g219">
</g><g
     transform="matrix(1.384869,0,0,1.384869,245.5325,53.483867)"
     id="g221">
</g><g
     transform="matrix(1.384869,0,0,1.384869,245.5325,53.483867)"
     id="g223">
</g><g
     transform="matrix(1.384869,0,0,1.384869,245.5325,53.483867)"
     id="g225">
</g><g
     transform="matrix(1.384869,0,0,1.384869,245.5325,53.483867)"
     id="g227">
</g><g
     transform="matrix(1.384869,0,0,1.384869,245.5325,53.483867)"
     id="g229">
</g></g></svg>